<svg xmlns="http://www.w3.org/2000/svg" viewBox="0 0 1024 1024">
    <path d="M756 846c18-6 36-16 52-32 14-16 24-32 30-50 2-6 2-12 2-20 0-22-6-38-20-52L576 440c6-18 10-40 10-64 0-54-20-100-58-142-38-38-86-58-142-58-24 0-50 6-78 16-6 2-12 6-14 16v6c0 6 2 12 6 16l112 112c2 8 4 14 4 18 0 10-4 20-14 30s-22 16-32 16c-6 0-12-2-20-4L240 290c-4-4-10-6-16-6-12 0-20 4-24 14-10 26-16 52-16 80 0 56 20 102 60 140 40 40 88 60 142 60 18 0 38-4 60-10 40 42 82 88 126 136l28 32c46 50 74 82 84 92 16 14 32 20 50 20 10 0 16 0 22-2zM452 516l-8 2c-18 8-36 12-58 12-44 0-80-16-108-46-30-28-46-64-46-108 0-10 0-18 2-24l86 86c2 2 4 4 6 4 14 8 28 12 44 12 24 0 46-10 66-30 18-18 28-40 28-64 0-12-4-26-10-42l-4-6-86-86c6-2 14-2 24-2 38 0 74 14 106 44 30 30 44 66 44 108 0 20-4 40-12 60-2 2-2 6-2 10 0 6 2 12 6 16l256 264c6 6 6 14 4 26-2 10-6 18-16 28s-20 16-30 18c-2 2-6 2-10 2-6 0-12-2-16-6l-84-90c-48-56-102-116-164-180-8-6-14-8-18-8z"/></svg>