<?xml version="1.0" encoding="UTF-8"?>
<svg width="128pt" height="128pt" version="1.1" viewBox="0 0 128 128" xmlns="http://www.w3.org/2000/svg">
 <path d="m64 128.01c-2.5391 0-5.082-0.63672-7.3984-1.9062l-44.062-24.191c-5.3672-2.9453-8.6992-8.6367-8.6992-14.855v-46.117c0-6.2148 3.332-11.906 8.6992-14.855l24.605-13.508c1.2422-0.68359 2.7969-0.22656 3.4766 1.0117 0.67969 1.2383 0.22656 2.7969-1.0117 3.4766l-24.605 13.508c-3.7266 2.0469-6.043 6.0195-6.043 10.367v46.121c0 4.3477 2.3164 8.3203 6.043 10.367l44.059 24.188c3.0938 1.6953 6.7852 1.6992 9.875 0l7.875-4.3359c1.2461-0.68359 2.7969-0.23047 3.4766 1.0078 0.68359 1.2383 0.23047 2.7969-1.0078 3.4766l-7.8789 4.3398c-2.3164 1.2695-4.8594 1.9062-7.4023 1.9062z"/>
 <path d="m33.695 32.496c-0.25 0-0.50781-0.039063-0.75781-0.11328-1.3516-0.41797-2.1055-1.8516-1.6875-3.2031l3.9336-12.695-12.414-3.9883c-1.3477-0.43359-2.0859-1.875-1.6523-3.2188 0.43359-1.3438 1.8789-2.082 3.2188-1.6523l14.824 4.7656c1.3359 0.42969 2.0781 1.8555 1.6641 3.1953l-4.6836 15.113c-0.33984 1.0898-1.3516 1.7969-2.4453 1.7969z"/>
 <path d="m89.523 115.79c-0.90625 0-1.7812-0.48047-2.2461-1.3281-0.67969-1.2422-0.22656-2.7969 1.0117-3.4766l24.605-13.508c3.7266-2.0469 6.043-6.0195 6.043-10.367v-46.117c0-4.3477-2.3164-8.3203-6.043-10.367l-44.059-24.188c-3.0898-1.6992-6.7852-1.6953-9.875 0l-7.875 4.3359c-1.2383 0.67969-2.7969 0.23047-3.4766-1.0078-0.68359-1.2383-0.23047-2.7969 1.0078-3.4766l7.8789-4.3398c4.6367-2.5469 10.172-2.5469 14.805 0l44.059 24.188c5.3633 2.9453 8.6992 8.6367 8.6992 14.852v46.121c0 6.2148-3.332 11.906-8.6992 14.852l-24.605 13.512c-0.39062 0.21484-0.8125 0.31641-1.2305 0.31641z"/>
 <path d="m104.35 120.56c-0.25781 0-0.52344-0.039062-0.78516-0.125l-14.828-4.7656c-1.3359-0.42969-2.0781-1.8555-1.6602-3.1953l4.6836-15.113c0.41797-1.3516 1.8516-2.1094 3.2031-1.6875 1.3516 0.41797 2.1055 1.8516 1.6875 3.2031l-3.9336 12.691 12.414 3.9883c1.3438 0.43359 2.0859 1.875 1.6523 3.2227-0.34375 1.0859-1.3516 1.7812-2.4336 1.7812z"/>
 <path d="m104.35 120.56c-0.25781 0-0.52344-0.039062-0.78516-0.125l-14.828-4.7656c-1.3359-0.42969-2.0781-1.8555-1.6602-3.1953l4.6836-15.113c0.41797-1.3516 1.8516-2.1094 3.2031-1.6875 1.3516 0.41797 2.1055 1.8516 1.6875 3.2031l-3.9336 12.691 12.414 3.9883c1.3438 0.43359 2.0859 1.875 1.6523 3.2227-0.34375 1.0859-1.3516 1.7812-2.4336 1.7812z"/>
 <path d="m84.469 52.105c-1.4102 0-2.5547-1.1406-2.5586-2.5469-0.007812-1.4141 1.1367-2.5664 2.5469-2.5703l2.3477-0.011719c2.8867-0.054687 5.3555-2.7031 5.3555-5.7852 0-3.0352-2.4023-5.5469-5.3555-5.6016l-2.4648-0.042969-0.050782-2.4648c-0.14844-7.418-5.6094-13.449-12.176-13.449-4.5078 0-8.6328 2.8047-10.758 7.3164l-0.83594 1.7734-1.9297-0.33984c-4.418-0.78516-8.7148 1.8047-10.277 5.957l-0.6875 1.8281-1.9453-0.18359c-0.17188-0.015625-0.34375-0.027344-0.51563-0.027344-3.0039 0-5.4531 2.5117-5.4531 5.6016 0 1.5039 0.57422 2.918 1.6133 3.9805 0.98828 1.0117 0.97266 2.6289-0.035157 3.6211-1.0078 0.98828-2.6289 0.97656-3.6211-0.035156-1.9844-2.0234-3.0781-4.7109-3.0781-7.5664 0-5.6055 4.2656-10.223 9.6758-10.684 2.5703-4.8789 7.7578-7.9961 13.324-7.7461 3.1719-5.3594 8.5938-8.6172 14.523-8.6172 8.6523 0 15.953 7.1211 17.133 16.273 4.5938 1.168 8.0312 5.418 8.0312 10.406 0 5.9062-4.6719 10.797-10.418 10.902l-2.3828 0.011719h-0.007812z"/>
 <path d="m64.469 112.1c-1.4141 0-2.5586-1.1484-2.5586-2.5586v-8.0352c0-1.4141 1.1484-2.5586 2.5586-2.5586 1.4141 0 2.5586 1.1484 2.5586 2.5586v8.0312c0.003906 1.4141-1.1445 2.5625-2.5586 2.5625z"/>
 <path d="m68.074 103.84c-1.75 0-3.4336-0.6875-4.6289-1.9453-1.4219-1.5-1.9258-3.5625-1.3398-5.5195 0.93359-3.1484 2.5-5.7266 4.6484-7.668 5.3984-4.8711 13.758-4.875 14.191-4.8789 1.3984 0.007813 2.5312 1.1406 2.543 2.5391 0.003907 0.33203 0.003907 8.1836-5.5156 13.168-2.1133 1.9102-4.9102 3.293-8.3125 4.1172-0.53125 0.125-1.0625 0.1875-1.5859 0.1875zm0.98047-2.6758h0.011718zm8.9531-11.949c-2.3203 0.36719-5.5508 1.2383-7.8281 3.2891-1.4414 1.3008-2.5078 3.0938-3.1719 5.3281-0.027343 0.09375-0.085937 0.29297 0.14453 0.53516 0.23047 0.24219 0.69141 0.45312 1.2969 0.30859 2.5625-0.62109 4.6094-1.6133 6.0859-2.9414 2.0977-1.8945 3.043-4.5273 3.4727-6.5195z"/>
 <path d="m61.879 108.25c-0.45703 0-0.91797-0.0625-1.375-0.1875-2.5312-0.70312-4.6172-1.8828-6.1914-3.5078-3.9961-4.1211-3.9961-10.527-3.9922-10.797 0.011719-1.3984 1.1406-2.5312 2.5391-2.5391 0.28125 0.007813 6.5547 0.003906 10.578 4.1523 1.5664 1.6133 2.6992 3.7461 3.375 6.332 0.47656 1.8242-0.054688 3.7695-1.3867 5.082-0.97266 0.95313-2.2383 1.4648-3.5469 1.4648zm-6.0312-11.469c0.34375 1.3945 0.97656 3.0078 2.1367 4.207 0.93359 0.96094 2.2383 1.6797 3.8789 2.1367-0.011719-0.007812 0.015625-0.046875-0.007812-0.13281-0.44922-1.7227-1.1562-3.0859-2.0977-4.0586-1.1133-1.1562-2.6016-1.7969-3.9102-2.1523z"/>
 <path d="m76.617 114.48h-23.191c-1.4141 0-2.5586-1.1484-2.5586-2.5586 0-1.4141 1.1484-2.5586 2.5586-2.5586h23.191c1.4141 0 2.5586 1.1484 2.5586 2.5586 0.003907 1.4102-1.1445 2.5586-2.5586 2.5586z"/>
 <path d="m84.828 78.754h-0.011719l-13.848-0.050781c-1.4102-0.003906-2.5508-1.1484-2.5508-2.5586 0-4.6406 4.5742-7.2773 8.6133-9.6055 2.1914-1.2617 5.5-3.168 5.5-4.3984 0-1.8711-2.7891-2.5898-4.5469-2.6016-1.6172 0.003907-4.5078 0.52734-4.5391 2.6406-0.023437 1.4141-1.1562 2.5508-2.5977 2.5234-1.4141-0.023437-2.543-1.1836-2.5234-2.5977 0.066406-4.4922 4.1562-7.75 9.6992-7.6836 5.5781 0.042969 9.6289 3.2891 9.6289 7.7227 0 4.1875-4.1016 6.5508-8.0664 8.8359-1.3945 0.80078-2.9609 1.7031-4.1523 2.6211l9.4023 0.035157c1.4141 0.003906 2.5547 1.1562 2.5508 2.5703-0.003907 1.4062-1.1484 2.5469-2.5586 2.5469z"/>
 <path d="m62.262 78.262c-0.73438 0-1.4648-0.3125-1.9688-0.92188l-15.059-18.086c-0.90625-1.0859-0.75781-2.6992 0.32812-3.6055s2.6992-0.75781 3.6055 0.32812l15.059 18.082c0.90625 1.0859 0.75781 2.6992-0.33203 3.6055-0.47656 0.40234-1.0586 0.59766-1.6328 0.59766z"/>
 <path d="m47.203 78.262c-1.4141 0-2.5586-1.1484-2.5586-2.5586l-0.003906-18.086c0-1.4141 1.1484-2.5586 2.5586-2.5586 1.4141 0 2.5586 1.1484 2.5586 2.5586l0.003907 18.082c0 1.4141-1.1484 2.5625-2.5586 2.5625z"/>
 <path d="m62.258 78.262c-1.4141 0-2.5586-1.1484-2.5586-2.5586v-18.086c0-1.4141 1.1484-2.5586 2.5586-2.5586 1.4141 0 2.5586 1.1484 2.5586 2.5586l0.003906 18.082c0 1.4141-1.1484 2.5625-2.5625 2.5625z"/>
</svg>
